# xmcd
#
# Track frame offsets:
#	180
#	14352
#	31556
#	44582
#	64046
#	77805
#	95835
#	110480
#	120930
#	134452
#
# Disc length: 2019 seconds
#
# Revision: 0
# Processed by: cddbd v1.5.2PL0 Copyright (c) Steve Scherf et al.
# Submitted via: EasyCDDAExtractor 10.0.2.1
#
DISCID=7d07e10a
DTITLE=Luis Perez Meza - Corridos de Personajes Famosos
DYEAR=1996
DGENRE=Country
TTITLE0=Gabino Barrera
TTITLE1=Nuevo Heraclio Bernal
TTITLE2=Felipe Angeles
TTITLE3=Martin Elenes
TTITLE4=Valentin De La Sierra
TTITLE5=Simon Blanco
TTITLE6=Nuevo Corrido de Murrieta
TTITLE7=Juan Carrasco
TTITLE8=Tino Nevares
TTITLE9=Lucio Vazquez
EXTD=
EXTT0=
EXTT1=
EXTT2=
EXTT3=
EXTT4=
EXTT5=
EXTT6=
EXTT7=
EXTT8=
EXTT9=
PLAYORDER=
